{
    "asset" : {
        "generator" : "Khronos glTF Blender I/O v3.3.27",
        "version" : "2.0"
    },
    "scene" : 0,
    "scenes" : [
        {
            "name" : "Scene",
            "nodes" : [
                6
            ]
        }
    ],
    "nodes" : [
        {
            "name" : "Comp_Screen.000",
            "rotation" : [
                -0.7071068286895752,
                0,
                0,
                0.7071067094802856
            ],
            "scale" : [
                212.24996948242188,
                212.24993896484375,
                212.24993896484375
            ],
            "translation" : [
                18.161304473876953,
                0,
                7.62939453125e-06
            ]
        },
        {
            "name" : "Comp_Screen.002",
            "rotation" : [
                -0.7071068286895752,
                0,
                0,
                0.7071067094802856
            ],
            "scale" : [
                212.24996948242188,
                212.24993896484375,
                212.24993896484375
            ],
            "translation" : [
                18.161304473876953,
                0,
                7.62939453125e-06
            ]
        },
        {
            "mesh" : 0,
            "name" : "Plane_BackgroundMaterial_0"
        },
        {
            "children" : [
                2
            ],
            "name" : "Plane",
            "rotation" : [
                -0.7071068286895752,
                0,
                0,
                0.7071067094802856
            ],
            "scale" : [
                120.57162475585938,
                120.57161712646484,
                120.57161712646484
            ],
            "translation" : [
                0,
                -5.3733978271484375,
                -41.866615295410156
            ]
        },
        {
            "children" : [
                0,
                1,
                3
            ],
            "name" : "RootNode",
            "translation" : [
                0,
                0,
                7.62939453125e-06
            ]
        },
        {
            "children" : [
                4
            ],
            "name" : "b462ac61a74e43db85f1b4fa07188c50.fbx",
            "rotation" : [
                0.7071068286895752,
                0,
                0,
                0.7071067094802856
            ],
            "translation" : [
                0,
                -3.4505883377278224e-06,
                1.4565386663889512e-05
            ]
        },
        {
            "children" : [
                5
            ],
            "name" : "Sketchfab_model",
            "rotation" : [
                -0.7071068286895752,
                0,
                0,
                0.7071067094802856
            ],
            "scale" : [
                0.004035395570099354,
                0.004035396035760641,
                0.004035396035760641
            ],
            "translation" : [
                0.14767755568027496,
                -0.8129425048828125,
                -0.43746358156204224
            ]
        }
    ],
    "materials" : [
        {
            "alphaMode" : "BLEND",
            "doubleSided" : true,
            "name" : "BackgroundMaterial",
            "pbrMetallicRoughness" : {
                "baseColorTexture" : {
                    "index" : 0
                },
                "metallicFactor" : 0
            }
        }
    ],
    "meshes" : [
        {
            "name" : "Plane_BackgroundMaterial_0",
            "primitives" : [
                {
                    "attributes" : {
                        "POSITION" : 0,
                        "NORMAL" : 1,
                        "TEXCOORD_0" : 2
                    },
                    "indices" : 3,
                    "material" : 0
                }
            ]
        }
    ],
    "textures" : [
        {
            "sampler" : 0,
            "source" : 0
        }
    ],
    "images" : [
        {
            "bufferView" : 4,
            "mimeType" : "image/png",
            "name" : "BackgroundMaterial_baseColor"
        }
    ],
    "accessors" : [
        {
            "bufferView" : 0,
            "componentType" : 5126,
            "count" : 6,
            "max" : [
                5.349241256713867,
                1.8018858432769775,
                3.120957851409912
            ],
            "min" : [
                -5.086183547973633,
                -1.125450849533081,
                -1.9493379592895508
            ],
            "type" : "VEC3"
        },
        {
            "bufferView" : 1,
            "componentType" : 5126,
            "count" : 6,
            "type" : "VEC3"
        },
        {
            "bufferView" : 2,
            "componentType" : 5126,
            "count" : 6,
            "type" : "VEC2"
        },
        {
            "bufferView" : 3,
            "componentType" : 5123,
            "count" : 6,
            "type" : "SCALAR"
        }
    ],
    "bufferViews" : [
        {
            "buffer" : 0,
            "byteLength" : 72,
            "byteOffset" : 0,
            "target" : 34962
        },
        {
            "buffer" : 0,
            "byteLength" : 72,
            "byteOffset" : 72,
            "target" : 34962
        },
        {
            "buffer" : 0,
            "byteLength" : 48,
            "byteOffset" : 144,
            "target" : 34962
        },
        {
            "buffer" : 0,
            "byteLength" : 12,
            "byteOffset" : 192,
            "target" : 34963
        },
        {
            "buffer" : 0,
            "byteLength" : 854347,
            "byteOffset" : 204
        }
    ],
    "samplers" : [
        {
            "magFilter" : 9729,
            "minFilter" : 9987
        }
    ],
    "buffers" : [
        {
            "byteLength" : 854552,
            "uri" : "data:application/octet-stream;base64,"
        }
    ]
}
